<svg width="53" height="53" viewBox="0 0 53 53" fill="none" xmlns="http://www.w3.org/2000/svg">
<g clip-path="url(#clip0)">
<path d="M36.802 1.055L36.747 0L35.697 0.113C35.594 0.124 25.445 1.347 24.749 12.694L24.679 13.83L25.815 13.753C25.931 13.745 37.426 12.828 36.802 1.055ZM34.821 2.322C34.63 9.16 29.31 11.062 26.868 11.575C27.798 4.93 32.617 2.905 34.821 2.322Z" fill="#656C7D"/>
<path d="M46.584 37.517L45.945 37.31C42.078 36.06 39.481 32.518 39.481 28.496C39.481 24.918 41.504 21.718 44.762 20.144L45.734 19.675L45.192 18.742C44.96 18.342 42.791 14.799 38.209 13.626C34.575 12.696 30.489 13.519 26.06 16.073C24.185 14.935 17.957 11.655 13.002 14.943C12.032 15.479 1.751 21.638 7.102 38.256C7.259 38.628 10.99 47.369 15.405 50.643C16.596 51.781 19.642 53.203 23.123 50.83C23.726 50.581 27.761 49.028 30.321 50.847C31.266 51.494 32.916 52.227 34.659 52.227C35.981 52.227 37.356 51.806 38.518 50.606C39.06 50.137 44.011 45.718 46.584 38.718L46.659 38.514L46.584 37.517ZM37.182 49.115L37.105 49.188C34.912 51.491 31.587 49.288 31.464 49.206C30.156 48.276 28.641 47.973 27.22 47.973C24.641 47.973 22.373 48.972 22.228 49.037L22.065 49.129C19.046 51.236 16.979 49.382 16.76 49.171L16.642 49.07C12.649 46.158 8.979 37.563 8.974 37.56C3.966 21.992 13.56 16.9 13.968 16.693L14.078 16.628C18.725 13.508 25.405 18.024 25.471 18.069L26.004 18.435L26.556 18.102C30.716 15.587 34.47 14.732 37.713 15.563C40.355 16.239 42.039 17.89 42.863 18.905C39.516 20.956 37.482 24.535 37.482 28.496C37.482 33.052 40.217 37.1 44.384 38.861C41.819 45.122 37.231 49.074 37.182 49.115Z" fill="#656C7D"/>
</g>
<defs>
<clipPath id="clip0">
<rect width="52.226" height="52.226" fill="white"/>
</clipPath>
</defs>
</svg>
