<svg width="40" height="40" viewBox="0 0 40 40" fill="none" xmlns="http://www.w3.org/2000/svg">
<path d="M29.9793 32.6667C28.9733 32.6667 28.0813 33.1247 27.4693 33.8314L27.958 34.0661C28.29 34.2247 28.43 34.6234 28.2706 34.9554C28.1559 35.194 27.9173 35.3333 27.6693 35.3333C27.5719 35.3333 27.474 35.3126 27.3813 35.2673L26.8173 34.9973C26.716 35.316 26.646 35.648 26.646 36C26.646 37.8379 28.1413 39.3333 29.9794 39.3333C31.8173 39.3333 33.3127 37.838 33.3127 36C33.3127 34.1621 31.8173 32.6667 29.9793 32.6667ZM29.9793 38C28.8766 38 27.9793 37.1027 27.9793 36C27.9793 34.8974 28.8766 34 29.9793 34C31.0827 34 31.9793 34.8974 31.9793 36C31.9793 37.1027 31.0827 38 29.9793 38Z" fill="#656C7D"/>
<path d="M14.02 35.3334H14.0134C13.6454 35.3334 13.35 35.6321 13.35 36.0001C13.35 36.368 13.652 36.6667 14.02 36.6667C14.3887 36.6667 14.6866 36.368 14.6866 36.0001C14.6866 35.6321 14.3887 35.3334 14.02 35.3334Z" fill="#656C7D"/>
<path d="M16.3107 35.3334C16.0694 35.3334 15.8373 35.2028 15.7187 34.9741C15.5487 34.6481 15.676 34.2454 16.002 34.0754L16.4987 33.8175C15.8873 33.1182 14.9994 32.6667 14 32.6667C12.1627 32.6667 10.6666 34.1621 10.6666 36.0001C10.6666 37.8381 12.1627 39.3335 14 39.3335C15.838 39.3335 17.3334 37.8382 17.3334 36.0001C17.3334 35.6414 17.262 35.3021 17.1567 34.9781L16.6174 35.2581C16.5194 35.3093 16.414 35.3334 16.3107 35.3334ZM14 38C12.8973 38 12 37.1027 12 36C12 34.8974 12.8973 34 14 34C15.1034 34 16 34.8974 16 36C16 37.1027 15.1034 38 14 38Z" fill="#656C7D"/>
<path d="M29.9994 35.3334H29.9927C29.6248 35.3334 29.3294 35.6321 29.3294 36.0001C29.3294 36.368 29.6314 36.6667 29.9994 36.6667C30.368 36.6667 30.666 36.368 30.666 36.0001C30.666 35.6321 30.368 35.3334 29.9994 35.3334Z" fill="#656C7D"/>
<path d="M23.2513 31.8074L24.308 31.2581C24.6346 31.0881 24.762 30.6854 24.592 30.3594C24.422 30.0321 24.0193 29.9054 23.6927 30.0754L21.7487 31.0862L19.622 30.0662C19.2913 29.9054 18.892 30.0462 18.7327 30.3782C18.5734 30.7102 18.7134 31.1088 19.0454 31.2675L20.2701 31.8555L16.4987 33.8175C16.7921 34.1528 17.0154 34.5448 17.1567 34.9782L21.7734 32.5769L26.8173 34.9975C26.956 34.5622 27.1773 34.1688 27.4694 33.8315L23.2513 31.8074Z" fill="#656C7D"/>
<path d="M38.1473 7.73473C38.138 7.7127 38.1373 7.68809 38.1247 7.66676C38.1094 7.63942 38.0834 7.62341 38.0647 7.5988C36.852 5.53747 35.1307 3.81614 33.0694 2.60278C33.0447 2.58348 33.028 2.55809 33.0001 2.54208C32.978 2.52942 32.9541 2.52872 32.9308 2.51872C30.8847 1.34669 28.5227 0.666687 26 0.666687C25.632 0.666687 25.3334 0.965359 25.3334 1.33333V14.6667C25.3334 14.6807 25.3407 14.692 25.3413 14.706C25.3434 14.7353 25.3473 14.7633 25.3534 14.792C25.3594 14.8233 25.3667 14.852 25.3773 14.882C25.3866 14.91 25.3966 14.9354 25.41 14.9613C25.416 14.974 25.416 14.9873 25.4227 15C25.432 15.0153 25.4447 15.0273 25.4553 15.042C25.4666 15.0586 25.4793 15.0747 25.4933 15.0907C25.504 15.1033 25.5126 15.1186 25.524 15.1307C25.5266 15.1333 25.528 15.1367 25.5306 15.1386C25.5693 15.1779 25.6133 15.21 25.6593 15.2373C25.6627 15.2393 25.664 15.2426 25.6666 15.244C25.668 15.2447 25.6687 15.2447 25.6693 15.2453C25.6853 15.254 25.702 15.2579 25.718 15.2653C25.7353 15.274 25.7527 15.28 25.7706 15.2873C25.7759 15.2886 25.7799 15.2913 25.7846 15.2926C25.8553 15.3173 25.9273 15.3333 25.9993 15.3333H26H36.6666C37.0353 15.3333 37.3333 15.0347 37.3333 14.6667C37.3333 14.2987 37.0353 14 36.6666 14H28.4887L37.282 8.9227C38.1647 10.6487 38.6667 12.5993 38.6667 14.6667C38.6667 21.6514 32.9847 27.3333 26.0001 27.3333H18C11.2393 27.3333 5.6993 22.0086 5.3507 15.3333H23.3334C23.702 15.3333 24 15.0347 24 14.6667C24 14.2987 23.702 14 23.3334 14H5.18734L3.9807 9.17137C3.90602 8.87473 3.63937 8.66669 3.33336 8.66669H0.666641C0.298672 8.66669 0 8.96536 0 9.33333C0 9.7013 0.298672 10 0.666641 10H2.81328L4.00531 14.77C4.06195 22.4421 10.3153 28.6667 18 28.6667H26C33.72 28.6667 40 22.3867 40 14.6667C40 12.144 39.32 9.78137 38.1473 7.73473ZM26.6666 2.01739C28.4873 2.11208 30.2013 2.60473 31.74 3.39137L26.6666 12.1787V2.01739V2.01739ZM27.822 12.8454L32.8934 4.06067C34.3754 5.02731 35.6507 6.28536 36.6173 7.76669L27.822 12.8454Z" fill="#656C7D"/>
</svg>
