<svg width="40" height="42" viewBox="0 0 40 42" fill="none" xmlns="http://www.w3.org/2000/svg">
<g clip-path="url(#clip0_3225_27207)">
<path d="M32 2.5H8C4.96243 2.5 2.5 4.96243 2.5 8V34C2.5 37.0376 4.96243 39.5 8 39.5H32C35.0376 39.5 37.5 37.0376 37.5 34V8C37.5 4.96243 35.0376 2.5 32 2.5Z" stroke="#1C1C28"/>
<path d="M2 11.5H38" stroke="#1C1C28"/>
<path d="M20 33.75C24.8325 33.75 28.75 29.8325 28.75 25C28.75 20.1675 24.8325 16.25 20 16.25C15.1675 16.25 11.25 20.1675 11.25 25C11.25 29.8325 15.1675 33.75 20 33.75Z" stroke="#1C1C28" stroke-width="0.5"/>
<path d="M19.9999 30.8499C23.2308 30.8499 25.8499 28.2308 25.8499 24.9999C25.8499 21.769 23.2308 19.1499 19.9999 19.1499C16.769 19.1499 14.1499 21.769 14.1499 24.9999C14.1499 28.2308 16.769 30.8499 19.9999 30.8499Z" stroke="#1C1C28" stroke-width="0.3"/>
<path d="M17.8232 25.8232L20.8232 22.8232" stroke="#1C1C28" stroke-width="0.5"/>
<path d="M17.8232 27.8232L22.8232 22.8232" stroke="#1C1C28" stroke-width="0.5"/>
<path d="M31.9999 8.8499C33.0216 8.8499 33.8499 8.02163 33.8499 6.9999C33.8499 5.97818 33.0216 5.1499 31.9999 5.1499C30.9782 5.1499 30.1499 5.97818 30.1499 6.9999C30.1499 8.02163 30.9782 8.8499 31.9999 8.8499Z" stroke="#1C1C28" stroke-width="0.3"/>
<path d="M26.9999 8.8499C28.0216 8.8499 28.8499 8.02163 28.8499 6.9999C28.8499 5.97818 28.0216 5.1499 26.9999 5.1499C25.9782 5.1499 25.1499 5.97818 25.1499 6.9999C25.1499 8.02163 25.9782 8.8499 26.9999 8.8499Z" stroke="#1C1C28" stroke-width="0.3"/>
<path d="M15.9999 5.1499H8.9999C7.97818 5.1499 7.1499 5.97818 7.1499 6.9999C7.1499 8.02163 7.97818 8.8499 8.9999 8.8499H15.9999C17.0216 8.8499 17.8499 8.02163 17.8499 6.9999C17.8499 5.97818 17.0216 5.1499 15.9999 5.1499Z" stroke="#1C1C28" stroke-width="0.3"/>
</g>
<defs>
<clipPath id="clip0_3225_27207">
<rect width="40" height="42" fill="white"/>
</clipPath>
</defs>
</svg>
