<svg width="40" height="38" viewBox="0 0 40 38" fill="none" xmlns="http://www.w3.org/2000/svg">
<g id="chat-alt">
<path id="Combined Shape" d="M38.75 27.9166V28.6166C39.1366 28.6166 39.45 28.3032 39.45 27.9166H38.75ZM38.75 0.833313H39.45C39.45 0.446714 39.1366 0.133313 38.75 0.133313V0.833313ZM22.0833 27.9166V27.2166C21.7587 27.2166 21.4766 27.4399 21.402 27.7558C21.3275 28.0718 21.4799 28.3976 21.7703 28.5427L22.0833 27.9166ZM22.0833 27.9167L22.4716 28.4991C22.6793 28.3607 22.7975 28.1222 22.782 27.8732C22.7665 27.6241 22.6196 27.4021 22.3964 27.2906L22.0833 27.9167ZM9.58334 36.25H8.88334C8.88334 36.5081 9.02543 36.7453 9.25304 36.8672C9.48065 36.989 9.75683 36.9756 9.97163 36.8324L9.58334 36.25ZM9.58334 27.9166H10.2833C10.2833 27.53 9.96994 27.2166 9.58334 27.2166V27.9166ZM1.25 27.9166H0.55C0.55 28.3032 0.863401 28.6166 1.25 28.6166L1.25 27.9166ZM1.25 0.833313V0.133313C0.863401 0.133313 0.55 0.446714 0.55 0.833313L1.25 0.833313ZM39.45 27.9166V0.833313H38.05V27.9166H39.45ZM22.0833 28.6166H38.75V27.2166H22.0833V28.6166ZM22.3964 27.2906L22.3964 27.2905L21.7703 28.5427L21.7703 28.5427L22.3964 27.2906ZM9.97163 36.8324L22.4716 28.4991L21.695 27.3342L9.19505 35.6675L9.97163 36.8324ZM8.88334 27.9166V36.25H10.2833V27.9166H8.88334ZM1.25 28.6166H9.58334V27.2166H1.25V28.6166ZM0.55 0.833313V27.9166H1.95V0.833313H0.55ZM38.75 0.133313H1.25V1.53331H38.75V0.133313Z" fill="#656C7D"/>
</g>
</svg>
