<svg width="40" height="40" viewBox="0 0 40 40" fill="none" xmlns="http://www.w3.org/2000/svg">
<g clip-path="url(#clip0)">
<path d="M33.0987 36.1048C31.0523 27.0425 28.5482 21.2195 27.2376 18.555C26.5849 17.2285 26.1997 15.8063 26.0929 14.3285L26.0921 14.3182C26.0776 14.1224 26.0675 13.7575 26.0678 13.7317C26.0975 10.7083 27.8404 1.52465 27.858 1.43221C27.8934 1.24631 27.801 1.05949 27.6316 0.974827L25.771 0.0445061C25.6452 -0.0184175 25.4961 -0.014527 25.3736 0.0547396C25.251 0.124091 25.1711 0.249938 25.1603 0.390332C25.098 1.20022 24.9023 2.12589 24.6841 2.9614C23.1296 3.08962 21.5556 3.15533 20 3.15533C18.4446 3.15533 16.8703 3.08953 15.3154 2.96123C15.0567 1.96841 14.8935 1.08985 14.8397 0.390332C14.8289 0.249938 14.749 0.124175 14.6264 0.0547396C14.5039 -0.0146962 14.3549 -0.018502 14.229 0.0445061L12.3684 0.974827C12.1991 1.05949 12.1066 1.24623 12.142 1.43221C12.1622 1.53809 14.1571 12.0515 13.9132 14.2463C13.9125 14.2525 13.9119 14.2586 13.9115 14.2648C13.862 15.0075 13.7393 15.7481 13.5469 16.4662C13.3536 17.1877 13.0897 17.8904 12.7623 18.5549C11.4518 21.2193 8.94775 27.0423 6.90121 36.1046C6.86129 36.2813 6.93842 36.4639 7.09294 36.5584L11.2371 39.0957C11.3487 39.1641 11.4858 39.1769 11.6083 39.1303C11.7308 39.0837 11.8246 38.983 11.8626 38.8577L12.1407 37.9407C13.5975 38.2355 15.0837 38.4499 16.5711 38.5792L16.5143 39.0563C16.4902 39.2585 16.6137 39.449 16.8079 39.5098C17.8521 39.8365 18.926 39.9998 20 39.9998C21.074 39.9998 22.148 39.8365 23.1922 39.5098C23.3864 39.449 23.5098 39.2585 23.4858 39.0563L23.429 38.5793C24.9164 38.4499 26.4026 38.2356 27.8593 37.9408L28.1374 38.8578C28.1754 38.9831 28.2693 39.0837 28.3917 39.1303C28.4403 39.1489 28.4913 39.158 28.5421 39.158C28.6191 39.158 28.6956 39.1369 28.7629 39.0958L32.9071 36.5585C33.0615 36.464 33.1386 36.2814 33.0987 36.1048ZM14.7341 14.5902C15.9658 14.7609 17.2027 14.8721 18.4411 14.9225C18.2256 15.2307 18.099 15.6055 18.099 16.0092C18.099 16.3881 18.2108 16.741 18.4025 17.0378C17.0542 16.9845 15.7077 16.8626 14.3668 16.6743C14.5485 15.9932 14.6716 15.2935 14.7341 14.5902ZM21.0554 16.0092C21.0554 16.591 20.5819 17.0645 20 17.0645C19.4182 17.0645 18.9447 16.5911 18.9447 16.0092C18.9447 15.4342 19.407 14.966 19.9793 14.9548C19.9863 14.9548 19.9931 14.955 20 14.955C20.0069 14.955 20.0137 14.9548 20.0207 14.9548C20.593 14.9661 21.0554 15.4342 21.0554 16.0092ZM21.5585 14.9225C22.7972 14.8721 24.0343 14.7608 25.2663 14.5902C25.3289 15.2986 25.4511 15.9945 25.6325 16.6743C24.2915 16.8626 22.9448 16.9845 21.5963 17.0377C21.7883 16.7408 21.9011 16.3882 21.9011 16.0092C21.9011 15.6052 21.7741 15.2306 21.5585 14.9225ZM19.5776 5.44993C18.3832 5.43369 17.1822 5.34911 15.9981 5.19671C15.9016 4.92142 15.7348 4.42843 15.5574 3.8299C16.893 3.93274 18.2408 3.98898 19.5776 3.99888V5.44993V5.44993ZM20.4233 3.99888C21.7597 3.98898 23.1069 3.93274 24.4417 3.83007C24.264 4.43004 24.0978 4.92201 24.0018 5.19679C22.8181 5.34911 21.6175 5.43369 20.4233 5.45001V3.99888V3.99888ZM13.0322 1.58859L14.0634 1.07293C14.1758 1.89382 14.3924 2.8567 14.7099 3.94534C15.0068 4.96311 15.2789 5.69832 15.2903 5.72911C15.3446 5.87525 15.4749 5.97962 15.6293 6.00085C17.0728 6.19875 18.5432 6.29906 20 6.29906C21.4569 6.29906 22.9274 6.19867 24.3708 6.00085C24.5252 5.9797 24.6555 5.87525 24.7098 5.72911C24.7514 5.61705 25.6463 3.19094 25.9365 1.07293L26.9678 1.58859C26.6542 3.26325 25.2497 10.9112 25.2221 13.7231C25.222 13.7276 25.222 13.7344 25.2219 13.7423C21.7543 14.2295 18.2443 14.2295 14.7765 13.7421C14.75 10.9117 13.3467 3.26782 13.0322 1.58859ZM28.788 38.0888L24.9717 25.5034C24.904 25.2799 24.6679 25.1536 24.4444 25.2215C24.2208 25.2892 24.0946 25.5253 24.1624 25.7488L27.6129 37.128C26.2038 37.4102 24.7668 37.615 23.3292 37.7391L22.185 28.1134C22.1575 27.8815 21.9475 27.7156 21.7152 27.7434C21.4833 27.771 21.3176 27.9813 21.3453 28.2132L22.6039 38.8014C20.8934 39.2715 19.1069 39.2715 17.3964 38.8014L18.605 28.6416C18.6326 28.4097 18.467 28.1993 18.2351 28.1718C18.0032 28.1442 17.7928 28.3098 17.7652 28.5417L16.671 37.739C15.2333 37.6149 13.7963 37.4101 12.3871 37.128L15.8376 25.7487C15.9055 25.5252 15.7792 25.2891 15.5557 25.2214C15.3323 25.1535 15.096 25.2798 15.0283 25.5033L11.2121 38.0888L7.79347 35.9958C9.80804 27.1868 12.2415 21.5304 13.5213 18.9286C13.7495 18.4655 13.9484 17.9848 14.1171 17.4928C16.07 17.7734 18.035 17.9156 20.0001 17.9156C21.9649 17.9156 23.9296 17.7735 25.8822 17.4929C26.05 17.9814 26.2486 18.4605 26.4788 18.9283C27.7587 21.5304 30.1921 27.1868 32.2067 35.9958L28.788 38.0888Z" fill="#656C7D"/>
</g>
<defs>
<clipPath id="clip0">
<rect width="40" height="40" fill="white"/>
</clipPath>
</defs>
</svg>
