<svg width="40" height="40" viewBox="0 0 40 40" fill="none" xmlns="http://www.w3.org/2000/svg">
<path d="M28.065 15.242C28.065 21.972 22.59 27.446 15.86 27.446C9.129 27.446 3.653 21.971 3.653 15.242C3.653 8.51298 9.129 3.03798 15.86 3.03798C22.59 3.03798 28.065 8.51298 28.065 15.242V15.242ZM4.533 15.242C4.533 21.487 9.615 26.567 15.861 26.567C22.106 26.567 27.187 21.487 27.187 15.242C27.187 8.99698 22.106 3.91698 15.861 3.91698C9.615 3.91698 4.533 8.99698 4.533 15.242Z" fill="#656C7D"/>
<path d="M16.3 5.83098C16.3 5.94768 16.2536 6.05959 16.1711 6.14211C16.0886 6.22463 15.9767 6.27098 15.86 6.27098C10.912 6.27098 6.886 10.296 6.886 15.243C6.886 15.3597 6.83964 15.4716 6.75712 15.5541C6.67461 15.6366 6.56269 15.683 6.446 15.683C6.3293 15.683 6.21739 15.6366 6.13487 15.5541C6.05235 15.4716 6.006 15.3597 6.006 15.243C6.006 9.81098 10.426 5.39198 15.859 5.39198C15.9168 5.39172 15.9741 5.40288 16.0276 5.42483C16.0811 5.44677 16.1297 5.47906 16.1707 5.51985C16.2117 5.56064 16.2442 5.60913 16.2664 5.66252C16.2886 5.71592 16.3 5.77316 16.3 5.83098V5.83098Z" fill="#656C7D"/>
<path d="M36.346 36.522C36.3458 36.6111 36.3185 36.6981 36.2677 36.7714C36.2169 36.8447 36.1451 36.9008 36.0617 36.9323C35.9784 36.9639 35.8874 36.9694 35.8008 36.9481C35.7142 36.9267 35.6362 36.8796 35.577 36.813L24.029 23.697C23.9576 23.6088 23.923 23.4965 23.9324 23.3834C23.9418 23.2703 23.9946 23.1653 24.0796 23.0902C24.1646 23.0151 24.2754 22.9757 24.3888 22.9803C24.5022 22.985 24.6094 23.0332 24.688 23.115L36.236 36.232C36.307 36.3119 36.3461 36.4151 36.346 36.522V36.522Z" fill="#656C7D"/>
</svg>
