<svg width="40" height="40" viewBox="0 0 40 40" fill="none" xmlns="http://www.w3.org/2000/svg">
<path d="M14.365 7.96837H39.365C39.7102 7.96837 39.9898 7.68887 39.9898 7.34368C39.9898 6.99856 39.7102 6.71899 39.365 6.71899H14.365C14.0199 6.71899 13.7404 6.99856 13.7404 7.34368C13.7404 7.68887 14.0199 7.96837 14.365 7.96837Z" fill="#656C7D"/>
<path d="M39.365 19.5602H14.365C14.0199 19.5602 13.7404 19.8397 13.7404 20.1849C13.7404 20.5301 14.0199 20.8096 14.365 20.8096H39.365C39.7102 20.8096 39.9898 20.5301 39.9898 20.1849C39.9898 19.8397 39.7102 19.5602 39.365 19.5602Z" fill="#656C7D"/>
<path d="M39.365 32.0315H14.365C14.0199 32.0315 13.7404 32.3111 13.7404 32.6562C13.7404 33.0014 14.0199 33.2809 14.365 33.2809H39.365C39.7102 33.2809 39.9898 33.0014 39.9898 32.6562C39.9898 32.3111 39.7102 32.0315 39.365 32.0315Z" fill="#656C7D"/>
<path d="M3.74004 3.61389C1.68347 3.61389 0.0102234 5.28714 0.0102234 7.3437C0.0102234 9.40033 1.68347 11.0736 3.74004 11.0736C5.79666 11.0736 7.46991 9.40033 7.46991 7.3437C7.46991 5.28714 5.79666 3.61389 3.74004 3.61389ZM3.74004 9.86389C2.3503 9.86389 1.21991 8.73352 1.21991 7.3437C1.21991 5.95395 2.3503 4.82358 3.74004 4.82358C5.12985 4.82358 6.26022 5.95395 6.26022 7.3437C6.26022 8.73352 5.12985 9.86389 3.74004 9.86389Z" fill="#656C7D"/>
<path d="M3.74004 16.4551C1.68347 16.4551 0.0102234 18.1283 0.0102234 20.1849C0.0102234 22.2415 1.68347 23.9148 3.74004 23.9148C5.79666 23.9148 7.46991 22.2415 7.46991 20.1849C7.46991 18.1283 5.79666 16.4551 3.74004 16.4551ZM3.74004 22.7051C2.3503 22.7051 1.21991 21.5747 1.21991 20.1849C1.21991 18.7951 2.3503 17.6648 3.74004 17.6648C5.12985 17.6648 6.26022 18.7951 6.26022 20.1849C6.26022 21.5747 5.12985 22.7051 3.74004 22.7051Z" fill="#656C7D"/>
<path d="M3.74004 28.9264C1.68347 28.9264 0.0102234 30.5996 0.0102234 32.6562C0.0102234 34.7128 1.68347 36.3861 3.74004 36.3861C5.79666 36.3861 7.46991 34.7128 7.46991 32.6562C7.46991 30.5996 5.79666 28.9264 3.74004 28.9264ZM3.74004 35.1764C2.3503 35.1764 1.21991 34.046 1.21991 32.6562C1.21991 31.2665 2.3503 30.1361 3.74004 30.1361C5.12985 30.1361 6.26022 31.2665 6.26022 32.6562C6.26022 34.046 5.12985 35.1764 3.74004 35.1764Z" fill="#656C7D"/>
</svg>
