<svg width="40" height="40" viewBox="0 0 40 40" fill="none" xmlns="http://www.w3.org/2000/svg">
<path d="M25.8947 7.57898H20C19.6511 7.57898 19.3684 7.86164 19.3684 8.21054C19.3684 8.55945 19.6512 8.8421 20 8.8421H25.8947C26.2436 8.8421 26.5263 8.55945 26.5263 8.21054C26.5263 7.86164 26.2435 7.57898 25.8947 7.57898Z" fill="#656C7D"/>
<path d="M25.8947 12.6316H20C19.6511 12.6316 19.3684 12.9143 19.3684 13.2632C19.3684 13.612 19.6512 13.8947 20 13.8947H25.8947C26.2436 13.8947 26.5263 13.612 26.5263 13.2632C26.5263 12.9143 26.2435 12.6316 25.8947 12.6316Z" fill="#656C7D"/>
<path d="M18.3158 19.3684H4.8421C4.49328 19.3684 4.21054 19.6511 4.21054 20C4.21054 20.3489 4.49335 20.6315 4.8421 20.6315H18.3158C18.6646 20.6315 18.9473 20.3488 18.9473 20C18.9473 19.6511 18.6646 19.3684 18.3158 19.3684Z" fill="#656C7D"/>
<path d="M25.8948 19.3684H21.6842C21.3354 19.3684 21.0526 19.6511 21.0526 20C21.0526 20.3489 21.3355 20.6315 21.6842 20.6315H25.8948C26.2436 20.6315 26.5263 20.3488 26.5263 20C26.5263 19.6511 26.2435 19.3684 25.8948 19.3684Z" fill="#656C7D"/>
<path d="M8.21054 24.421H4.8421C4.49328 24.421 4.21054 24.7037 4.21054 25.0526C4.21054 25.4015 4.49335 25.6841 4.8421 25.6841H8.21054C8.55937 25.6841 8.84211 25.4015 8.84211 25.0526C8.84211 24.7038 8.55929 24.421 8.21054 24.421Z" fill="#656C7D"/>
<path d="M18.3158 24.421H11.5789C11.2301 24.421 10.9474 24.7037 10.9474 25.0526C10.9474 25.4015 11.2302 25.6841 11.5789 25.6841H18.3158C18.6646 25.6841 18.9474 25.4015 18.9474 25.0526C18.9474 24.7038 18.6646 24.421 18.3158 24.421Z" fill="#656C7D"/>
<path d="M25.8948 24.421H21.6842C21.3354 24.421 21.0526 24.7037 21.0526 25.0526C21.0526 25.4015 21.3355 25.6841 21.6842 25.6841H25.8948C26.2436 25.6841 26.5263 25.4015 26.5263 25.0526C26.5263 24.7038 26.2435 24.421 25.8948 24.421Z" fill="#656C7D"/>
<path d="M25.8948 29.4737H4.8421C4.49328 29.4737 4.21054 29.7563 4.21054 30.1053C4.21054 30.4542 4.49335 30.7368 4.8421 30.7368H25.8948C26.2436 30.7368 26.5263 30.4542 26.5263 30.1053C26.5263 29.7564 26.2435 29.4737 25.8948 29.4737Z" fill="#656C7D"/>
<path d="M14.9473 5.89478H4.8421C4.49328 5.89478 4.21054 6.17759 4.21054 6.52634V14.9474C4.21054 15.2962 4.49335 15.5789 4.8421 15.5789H9.64023C9.98906 15.5789 10.2718 15.2961 10.2718 14.9474C10.2718 14.5985 9.98898 14.3158 9.64023 14.3158H5.47367V7.1579H14.3158V14.3158H12.425C12.0762 14.3158 11.7934 14.5986 11.7934 14.9474C11.7934 15.2962 12.0762 15.5789 12.425 15.5789H14.9473C15.2962 15.5789 15.5789 15.2961 15.5789 14.9474V6.52634C15.579 6.17751 15.2962 5.89478 14.9473 5.89478Z" fill="#656C7D"/>
<path d="M36.4545 7.57898H29.8947V3.40766C29.8948 1.52867 28.3661 0 26.4871 0H3.40766C1.52867 0 0 1.52867 0 3.40766V34.3158C0 37.4501 2.54992 40 5.68422 40H34.3158C37.4501 40 40 37.4501 40 34.3158V11.1244C40 9.16945 38.4095 7.57898 36.4545 7.57898ZM5.68422 38.7369C3.24641 38.7369 1.2632 36.7535 1.2632 34.3159V3.40766C1.2632 2.22516 2.22523 1.26312 3.40773 1.26312H26.487C27.6696 1.26312 28.6316 2.22516 28.6316 3.40766V34.3158C28.6316 36.0999 29.4586 37.694 30.7486 38.7368H5.68422V38.7369ZM38.7369 34.3158C38.7369 36.7535 36.7537 38.7368 34.3159 38.7368C31.878 38.7368 29.8948 36.7534 29.8948 34.3158V8.84211H36.4547C37.7131 8.84211 38.737 9.86594 38.737 11.1244V34.3158H38.7369Z" fill="#656C7D"/>
</svg>
