<svg width="40" height="40" viewBox="0 0 40 40" fill="none" xmlns="http://www.w3.org/2000/svg">
<path d="M35.7364 15.1483C35.4826 15.1483 35.2316 15.171 34.9849 15.2149V10.4149C34.9849 8.73783 33.6205 7.37354 31.9436 7.37354H8.05648C6.37945 7.37354 5.01516 8.73791 5.01516 10.4149V15.2149C4.7682 15.171 4.51687 15.1483 4.26273 15.1483C1.91227 15.1483 0 17.0606 0 19.411C0 21.3899 1.37344 23.099 3.25953 23.5546V26.8096V29.1153C3.25953 29.3923 3.48414 29.6168 3.76109 29.6168H4.81758L5.29031 32.2146C5.33375 32.4531 5.54141 32.6264 5.78383 32.6264H7.81867C8.09563 32.6264 8.32023 32.4019 8.32023 32.1249V29.6169H31.6805V32.1249C31.6805 32.4019 31.9052 32.6264 32.1821 32.6264H34.217C34.4594 32.6264 34.6671 32.4531 34.7105 32.2146L35.1824 29.6169H36.238C36.515 29.6169 36.7396 29.3924 36.7396 29.1153V26.8096V23.5547C38.6263 23.0992 40 21.39 40 19.4111C40 17.0606 38.0873 15.1483 35.7364 15.1483ZM8.05648 8.37674H31.9434C33.0673 8.37674 33.9816 9.29104 33.9816 10.4149V15.5256C32.468 16.2092 31.4737 17.7278 31.4737 19.411V21.7843C31.0592 21.4753 30.5455 21.292 29.9898 21.292H10.0094C9.45398 21.292 8.94063 21.4751 8.52633 21.784V19.411C8.52633 17.7276 7.5318 16.209 6.01836 15.5256V10.4149C6.01836 9.29104 6.93266 8.37674 8.05648 8.37674ZM31.4737 23.7783V26.3081H8.52633V23.7783C8.52633 22.9606 9.19164 22.2953 10.0094 22.2953H29.9898C30.808 22.2953 31.4737 22.9606 31.4737 23.7783ZM3.82734 22.6415C2.21727 22.4272 1.0032 21.0384 1.0032 19.411C1.0032 17.6137 2.46547 16.1515 4.26273 16.1515C4.63641 16.1515 5.00203 16.2138 5.34977 16.3369C6.64977 16.7958 7.52312 18.0312 7.52312 19.411V26.308H4.26273V23.1387C4.26273 22.8873 4.07664 22.6747 3.82734 22.6415ZM7.31711 31.6233H6.20242L5.83734 29.6169H7.31703C7.31711 29.6169 7.31711 31.6233 7.31711 31.6233ZM33.7983 31.6233H32.6837V29.6169H34.1627L33.7983 31.6233ZM35.7364 28.6137H4.26273V27.3112H35.7364V28.6137ZM36.1719 22.6415C35.9227 22.6747 35.7364 22.8873 35.7364 23.1388V26.3081H32.4769V19.4111C32.4769 18.0312 33.3502 16.7958 34.6506 16.3368C34.9979 16.2139 35.3631 16.1516 35.7363 16.1516C37.5341 16.1516 38.9967 17.6138 38.9967 19.4111C38.9968 21.0384 37.7823 22.4273 36.1719 22.6415Z" fill="#656C7D"/>
<path d="M11.5606 15.5245V15.3745H11.4106H10.5328C10.3386 15.3745 10.1812 15.2171 10.1812 15.0229C10.1812 14.8287 10.3386 14.6713 10.5328 14.6713H11.4106H11.5606V14.5213V13.6435C11.5606 13.4494 11.718 13.292 11.9121 13.292C12.1063 13.292 12.2637 13.4494 12.2637 13.6435V14.5213V14.6713H12.4137H13.2915C13.4856 14.6713 13.6431 14.8287 13.6431 15.0229C13.6431 15.2171 13.4856 15.3745 13.2915 15.3745H12.4137H12.2637V15.5245V16.4023C12.2637 16.5965 12.1063 16.7538 11.9121 16.7538C11.718 16.7538 11.5606 16.5965 11.5606 16.4023V15.5245Z" stroke="#656C7D" stroke-width="0.3"/>
<path d="M27.7363 15.5245V15.3745H27.5863H26.7084C26.5143 15.3745 26.3569 15.2171 26.3569 15.0229C26.3569 14.8287 26.5143 14.6713 26.7084 14.6713H27.5863H27.7363V14.5213V13.6435C27.7363 13.4494 27.8937 13.292 28.0878 13.292C28.2819 13.292 28.4394 13.4494 28.4394 13.6435V14.5213V14.6713H28.5894H29.4672C29.6613 14.6713 29.8188 14.8287 29.8188 15.0229C29.8188 15.2171 29.6613 15.3745 29.4672 15.3745H28.5894H28.4394V15.5245V16.4023C28.4394 16.5965 28.2819 16.7538 28.0878 16.7538C27.8937 16.7538 27.7363 16.5965 27.7363 16.4023V15.5245Z" stroke="#656C7D" stroke-width="0.3"/>
<path d="M19.6488 15.5245V15.3745H19.4988H18.621C18.4269 15.3745 18.2694 15.2171 18.2694 15.0229C18.2694 14.8287 18.4269 14.6713 18.621 14.6713H19.4988H19.6488V14.5213V13.6435C19.6488 13.4494 19.8063 13.292 20.0004 13.292C20.1945 13.292 20.352 13.4494 20.352 13.6435V14.5213V14.6713H20.502H21.3789C21.573 14.6713 21.7305 14.8287 21.7305 15.0229C21.7305 15.2171 21.573 15.3745 21.3789 15.3745H20.502H20.352V15.5245V16.4023C20.352 16.5965 20.1945 16.7538 20.0004 16.7538C19.8063 16.7538 19.6488 16.5965 19.6488 16.4023V15.5245Z" stroke="#656C7D" stroke-width="0.3"/>
<path d="M6.10196 19.4245C6.10196 18.4103 5.27688 17.5853 4.26274 17.5853C3.2486 17.5853 2.42352 18.4103 2.42352 19.4245C2.42352 20.4386 3.2486 21.2637 4.26274 21.2637C5.27688 21.2636 6.10196 20.4386 6.10196 19.4245ZM3.42673 19.4245C3.42673 18.9635 3.80173 18.5885 4.26274 18.5885C4.72368 18.5885 5.09876 18.9635 5.09876 19.4245C5.09876 19.8854 4.72376 20.2605 4.26274 20.2605C3.80181 20.2604 3.42673 19.8854 3.42673 19.4245Z" fill="#656C7D"/>
<path d="M35.7364 17.5853C34.7222 17.5853 33.8972 18.4103 33.8972 19.4245C33.8972 20.4386 34.7222 21.2637 35.7364 21.2637C36.7505 21.2637 37.5756 20.4386 37.5756 19.4245C37.5756 18.4103 36.7505 17.5853 35.7364 17.5853ZM35.7364 20.2604C35.2754 20.2604 34.9004 19.8854 34.9004 19.4244C34.9004 18.9635 35.2754 18.5884 35.7364 18.5884C36.1973 18.5884 36.5724 18.9634 36.5724 19.4244C36.5724 19.8854 36.1972 20.2604 35.7364 20.2604Z" fill="#656C7D"/>
</svg>
