<svg width="40" height="40" viewBox="0 0 40 40" fill="none" xmlns="http://www.w3.org/2000/svg">
<g clip-path="url(#clip0)">
<path d="M24.7389 15.6204L19.9998 0.539185L15.2615 15.6204H0L12.3472 24.8969L7.61682 39.9549L19.9997 30.6479L32.3825 39.9549L27.6526 24.8968L40.0001 15.6203H24.7389V15.6204ZM30.0258 36.621L19.9998 29.0852L9.97369 36.6209L13.8038 24.4284L3.74256 16.8695H16.1782L19.9998 4.70625L23.8216 16.8695H36.2575L26.196 24.4284L30.0258 36.621Z" fill="#656C7D"/>
<path d="M34.2252 5.45587L32.5247 0.045166L30.8242 5.45587H25.3939L29.7873 8.75681L28.0953 14.1425L32.5247 10.8135L36.9534 14.1425L35.2615 8.75681L39.6548 5.45587H34.2252V5.45587ZM34.5966 10.8087L32.5247 9.25088L30.4521 10.8087L31.2438 8.2884L29.1365 6.70505H31.7415L32.5247 4.21223L33.3078 6.70505H35.9122L33.8049 8.2884L34.5966 10.8087Z" fill="#656C7D"/>
<path d="M3.04633 14.1426L7.47509 10.8136L11.9041 14.1426L10.2122 8.7569L14.6058 5.45595H9.17533L7.47501 0.045166L5.77518 5.45587H0.344604L4.73826 8.75681L3.04633 14.1426ZM4.08716 6.70505H6.69189L7.47501 4.21223L8.25846 6.70505H10.8632L8.75555 8.2884L9.54722 10.8087L7.47501 9.25088L5.40304 10.8087L6.19472 8.2884L4.08716 6.70505Z" fill="#656C7D"/>
</g>
<defs>
<clipPath id="clip0">
<rect width="40" height="40" fill="white"/>
</clipPath>
</defs>
</svg>
