<svg width="40" height="40" viewBox="0 0 40 40" fill="none" xmlns="http://www.w3.org/2000/svg">
<path d="M30.0447 15.6542L28.5564 17.7378C26.9617 16.2271 25.162 15.0756 23.221 14.3564C23.1703 14.3376 23.1211 14.3151 23.0704 14.297C22.8097 14.2036 22.5453 14.1247 22.2795 14.0472C22.1006 13.9943 21.9217 13.9429 21.7414 13.898C21.5227 13.8437 21.3033 13.7937 21.0816 13.7502C21.0462 13.743 21.0114 13.7336 20.9759 13.7263C21.438 13.1636 21.7269 12.4546 21.7269 11.671C21.7269 9.87415 20.2647 8.41193 18.4679 8.41193C16.6711 8.41193 15.2088 9.87415 15.2088 11.671C15.2088 12.4539 15.4978 13.1636 15.9592 13.7263C15.9237 13.7329 15.8889 13.743 15.8534 13.7502C15.6318 13.7937 15.4124 13.8437 15.1936 13.898C15.0133 13.9436 14.8337 13.995 14.6548 14.0479C14.3897 14.1254 14.1261 14.2043 13.8661 14.297C13.8133 14.3159 13.7618 14.339 13.709 14.3586C13.1383 14.5701 12.5821 14.8214 12.0367 15.1053C10.7367 13.6286 8.8559 12.7573 6.88019 12.7573C3.08667 12.7573 0 15.844 0 19.6375C0 22.063 1.25147 24.2393 3.29235 25.4857C2.67965 27.0529 2.19732 28.7317 1.88083 30.5118C1.57375 32.2377 2.00829 34.0041 3.04249 35.2382C3.80945 36.1529 4.81903 36.6569 5.88655 36.6569H31.0507C32.1182 36.6569 33.1278 36.1529 33.8947 35.2382C34.9289 34.0041 35.3627 32.237 35.0564 30.5118C34.4944 27.3513 33.4298 24.4942 31.9886 22.0593L36.9698 15.655H30.0447V15.6542ZM20.8463 15.1791C21.0787 15.2262 21.309 15.2813 21.5394 15.3421C21.74 15.395 21.9406 15.4493 22.1383 15.5123C22.37 15.5862 22.5996 15.668 22.8285 15.7556C22.9067 15.7853 22.9842 15.8179 23.0617 15.8491C23.8764 16.1808 24.6709 16.5972 25.4357 17.1027H11.5327C11.7456 16.9622 11.9556 16.8159 12.1736 16.6884C12.2062 16.6696 12.2373 16.6479 12.2699 16.6298L12.3481 16.5849C12.8464 16.3039 13.3555 16.0605 13.8719 15.8498C13.9509 15.8179 14.0291 15.7846 14.1087 15.7542C14.3369 15.6665 14.5665 15.5854 14.7975 15.5116C14.9959 15.4486 15.1973 15.3942 15.3986 15.3414C15.6282 15.2805 15.8585 15.2262 16.0902 15.1791C16.3654 15.1241 16.6421 15.0749 16.9209 15.0394C17.0455 15.0227 17.1701 15.0089 17.2946 14.9959C17.6828 14.9582 18.0732 14.93 18.4679 14.93C18.8626 14.93 19.253 14.9575 19.6411 14.9959C19.7657 15.0082 19.8903 15.0227 20.0148 15.0394C20.2944 15.0749 20.5711 15.1241 20.8463 15.1791ZM18.4679 9.86039C19.4666 9.86039 20.2785 10.6723 20.2785 11.671C20.2785 12.6697 19.4666 13.4815 18.4679 13.4815C17.4692 13.4815 16.6573 12.6697 16.6573 11.671C16.6573 10.6723 17.4692 9.86039 18.4679 9.86039ZM1.44846 19.6375C1.44846 16.6421 3.88477 14.2058 6.88019 14.2058C8.34531 14.2058 9.74815 14.8091 10.7642 15.8505C7.91367 17.7067 5.51719 20.5703 3.86594 24.1502C2.35882 23.1508 1.44846 21.4814 1.44846 19.6375ZM32.7838 34.3075C32.2971 34.8891 31.6815 35.2085 31.05 35.2085H5.88582C5.25502 35.2085 4.6387 34.8891 4.15202 34.3075C3.40171 33.4124 3.07726 32.0544 3.30611 30.7646C3.60377 29.0916 4.05424 27.5135 4.62566 26.0426L4.87335 25.4589C6.06833 22.6467 7.76955 20.2415 9.78581 18.444C9.91907 18.5063 10.061 18.5504 10.2146 18.5504H26.7205C26.8885 18.5504 27.0435 18.499 27.1869 18.4251C27.3651 18.5838 27.5345 18.7568 27.7076 18.9241L27.7055 18.927L28.1212 19.3608C28.983 20.2618 29.7775 21.2873 30.48 22.4099L30.9362 23.1399C32.1899 25.3524 33.1234 27.9256 33.6282 30.7646C33.8585 32.0544 33.5341 33.4124 32.7838 34.3075ZM29.5834 18.7923L30.7907 17.1027H34.0063L31.1586 20.7644C30.669 20.059 30.1374 19.4086 29.5834 18.7923Z" fill="#656C7D"/>
<path d="M32.5897 14.2058C32.8192 14.2058 33.0452 14.0972 33.1857 13.8936L33.5978 13.2983C33.8252 12.9695 33.7434 12.5183 33.4146 12.2902C33.0843 12.0628 32.6338 12.1446 32.4064 12.4734L31.9943 13.0688C31.7669 13.3976 31.8488 13.8487 32.1776 14.0769C32.3036 14.1645 32.4477 14.2058 32.5897 14.2058Z" fill="#656C7D"/>
<path d="M34.3162 11.713C34.5458 11.713 34.7718 11.6044 34.9123 11.4008L35.7879 10.1356C36.0153 9.80681 35.9334 9.35561 35.6046 9.12748C35.2744 8.89935 34.8246 8.98263 34.5965 9.31071L33.7209 10.5759C33.4935 10.9047 33.5753 11.3559 33.9041 11.5841C34.0302 11.671 34.1743 11.713 34.3162 11.713Z" fill="#656C7D"/>
<path d="M36.5056 8.54953C36.7352 8.54953 36.9611 8.4409 37.1016 8.23739L37.9772 6.97216C38.2046 6.64336 38.1228 6.19216 37.794 5.96403C37.4645 5.73662 37.014 5.81846 36.7859 6.14726L35.9103 7.41249C35.6829 7.74129 35.7647 8.19249 36.0935 8.42062C36.2202 8.50753 36.3636 8.54953 36.5056 8.54953Z" fill="#656C7D"/>
<path d="M38.6957 5.38682C38.9252 5.38682 39.1512 5.27819 39.2917 5.07468L39.7038 4.47936C39.9312 4.15056 39.8494 3.69936 39.5206 3.47123C39.1903 3.24382 38.7398 3.32566 38.5124 3.65446L38.1003 4.24978C37.8729 4.57858 37.9548 5.02978 38.2836 5.25791C38.4096 5.34482 38.553 5.38682 38.6957 5.38682Z" fill="#656C7D"/>
<path d="M35.3041 12.4742L34.892 13.0695C34.6646 13.3983 34.7464 13.8495 35.0752 14.0776C35.2012 14.1645 35.3446 14.2065 35.4866 14.2065C35.7162 14.2065 35.9421 14.0979 36.0826 13.8944L36.4947 13.2991C36.7221 12.9703 36.6403 12.5191 36.3115 12.2909C35.9827 12.0628 35.5322 12.1454 35.3041 12.4742Z" fill="#656C7D"/>
<path d="M37.1567 9.79884L36.4158 10.8692C36.1884 11.198 36.2702 11.6492 36.599 11.8774C36.725 11.9643 36.8684 12.0063 37.0104 12.0063C37.24 12.0063 37.4659 11.8977 37.6064 11.6941L38.3473 10.6237C38.5747 10.2949 38.4929 9.84374 38.1641 9.61561C37.8338 9.38747 37.3834 9.46931 37.1567 9.79884Z" fill="#656C7D"/>
<path d="M39.6879 7.41466C39.3583 7.18653 38.9079 7.26909 38.6797 7.59789L38.2676 8.19321C38.0402 8.52201 38.1221 8.97321 38.4509 9.20134C38.5769 9.28825 38.7203 9.33025 38.8622 9.33025C39.0918 9.33025 39.3178 9.22162 39.4583 9.01811L39.8704 8.42279C40.0985 8.09327 40.0167 7.64207 39.6879 7.41466Z" fill="#656C7D"/>
</svg>
