<svg width="40" height="40" viewBox="0 0 40 40" fill="none" xmlns="http://www.w3.org/2000/svg">
<path d="M38.7294 22.7167C39.7966 22.0561 40 21.0467 40 20.3747C40 18.6247 38.574 16.6668 36.6666 16.6668H27.3373C27.0026 16.6628 25.3334 16.5488 25.3334 14.6668C25.3334 14.2988 25.0354 14.0001 24.6667 14.0001C24.298 14.0001 24.0001 14.2988 24.0001 14.6668C24.0001 17.3034 26.1808 18.0001 27.3334 18.0001H36.6668C37.7748 18.0001 38.6668 19.2994 38.6668 20.3748C38.6668 20.7214 38.6668 21.7768 36.5941 22.0041C36.2421 22.0428 35.9821 22.3494 36.0015 22.7034C36.0201 23.0568 36.3128 23.3334 36.6668 23.3334C37.7694 23.3334 38.6668 24.2307 38.6668 25.3334C38.6668 26.4361 37.7694 27.3334 36.6668 27.3334H35.3334C34.9648 27.3334 34.6668 27.6321 34.6668 28C34.6668 28.368 34.9648 28.6667 35.3334 28.6667C36.4361 28.6667 37.3334 29.564 37.3334 30.6667C37.3334 31.7693 36.4361 32.6667 35.3334 32.6667H33.3334C32.9648 32.6667 32.6668 32.9654 32.6668 33.3333C32.6668 33.7013 32.9648 34 33.3334 34C34.0314 34 34.6668 34.6353 34.6668 35.3333C34.6668 36.006 34.0068 36.6667 33.3334 36.6667H23.3334C20.5501 36.6667 19.5487 36.114 18.3887 35.4747C17.408 34.934 16.2961 34.3213 14.0948 34.0067C13.7301 33.954 13.3921 34.208 13.3401 34.572C13.288 34.9367 13.5408 35.2746 13.9054 35.3267C15.8667 35.6067 16.8214 36.1333 17.7454 36.6427C18.9561 37.31 20.2067 38 23.3334 38H33.3333C34.7294 38 36 36.7287 36 35.3334C36 34.8468 35.8613 34.3854 35.6226 33.9874C37.3253 33.8407 38.6666 32.4074 38.6666 30.6667C38.6666 29.8207 38.3493 29.0467 37.828 28.458C39.0953 27.9854 40 26.7634 40 25.3334C40 24.2734 39.5026 23.3274 38.7294 22.7167Z" fill="#656C7D"/>
<path d="M5.99999 34.6666C6.7353 34.6666 7.33334 34.0687 7.33334 33.3333C7.33334 32.5979 6.7353 32 5.99999 32C5.26467 32 4.66663 32.598 4.66663 33.3334C4.66663 34.0687 5.26467 34.6666 5.99999 34.6666Z" fill="#656C7D"/>
<path d="M14 19.3334C15.9807 19.3334 18.4867 17.1227 19.8047 15.8047C22.6667 12.9427 22.6667 9.38543 22.6667 4.00004C22.6667 3.5827 22.916 3.3334 23.3334 3.3334C25.6387 3.3334 26.6667 4.36137 26.6667 6.66676V14.6668C26.6667 15.0347 26.9647 15.3334 27.3334 15.3334C27.7021 15.3334 28 15.0347 28 14.6668V6.66676C28 3.6134 26.386 2.00012 23.3334 2.00012C22.1747 2.00012 21.3334 2.84145 21.3334 4.00012C21.3334 9.23278 21.3334 12.3908 18.8621 14.8622C16.9267 16.7974 15.0634 18 14 18C13.6313 18 13.3334 18.2987 13.3334 18.6667C13.3334 19.0347 13.6313 19.3334 14 19.3334Z" fill="#656C7D"/>
<path d="M11.3334 16.6667H0.666641C0.297969 16.6667 0 16.9654 0 17.3333V37.3333C0 37.7013 0.297969 38 0.666641 38H11.3333C11.702 38 11.9999 37.7013 11.9999 37.3333V17.3333C12 16.9654 11.702 16.6667 11.3334 16.6667ZM10.6666 36.6667H1.33336V18H10.6667V36.6667H10.6666Z" fill="#656C7D"/>
</svg>
