<svg width="40" height="40" viewBox="0 0 40 40" fill="none" xmlns="http://www.w3.org/2000/svg">
<path d="M33.5319 16.3829H32.8653C32.263 14.0247 31.0736 11.8428 29.371 10.0267C29.3627 9.99756 29.3543 9.96865 29.3458 9.94006L27.8095 4.7246C27.5603 3.87898 26.7481 3.30593 25.8698 3.35343L25.6748 3.35273V0.63828C25.6748 0.285703 25.3891 0 25.0366 0C24.684 0 24.3983 0.285781 24.3983 0.63828L24.3984 6.55225C22.6048 5.78999 20.7003 5.40429 18.7234 5.40429C16.7464 5.40429 14.842 5.78999 13.0483 6.55225L13.0484 0.63828C13.0484 0.285781 12.7627 0 12.4102 0C12.0577 0 11.7719 0.285781 11.7719 0.63828L11.7718 3.35281L11.5769 3.35351C10.7014 3.30523 9.88635 3.87913 9.63713 4.72468L8.07463 10.0276C5.52823 12.7444 4.12769 16.2796 4.12769 20C4.12769 23.7207 5.52854 27.2561 8.0758 29.9732C8.08408 30.0024 8.09252 30.0313 8.10096 30.0599L9.63728 35.2753C9.8865 36.1209 10.6995 36.6938 11.577 36.6465L11.772 36.6472L11.772 39.3617C11.772 39.7143 12.0578 40 12.4103 40C12.7629 40 13.0486 39.7142 13.0486 39.3617L13.0484 33.4477C14.842 34.2099 16.7465 34.5956 18.7234 34.5956C20.7004 34.5956 22.6048 34.2099 24.3985 33.4477L24.3983 39.3616C24.3983 39.7141 24.6841 39.9999 25.0366 39.9999C25.3891 39.9999 25.6749 39.7141 25.6749 39.3616L25.675 36.6471L25.8699 36.6464C26.7451 36.6943 27.5605 36.1208 27.8097 35.2752L29.3722 29.9723C31.0741 28.1565 32.2633 25.9749 32.8654 23.6169H33.532C34.8225 23.6169 35.8724 22.567 35.8724 21.2765V18.7233C35.8723 17.4329 34.8223 16.3829 33.5319 16.3829ZM28.3421 29.2035C28.2716 29.2771 28.2197 29.3666 28.1909 29.4644L26.5851 34.9145C26.5012 35.1992 26.2258 35.3923 25.9309 35.3713C25.9159 35.3702 25.9022 35.3692 25.8858 35.3699L25.675 35.3706L25.6751 32.4458C25.6751 32.2238 25.5597 32.0176 25.3703 31.9016C25.1808 31.7854 24.9448 31.7762 24.7471 31.877C22.8684 32.8341 20.8419 33.3192 18.7234 33.3192C16.6049 33.3192 14.5784 32.8341 12.6999 31.8772C12.502 31.7764 12.266 31.7858 12.0767 31.9017C11.8873 32.0178 11.7719 32.2238 11.7719 32.446L11.772 35.3707L11.5612 35.37C11.5453 35.3709 11.531 35.3706 11.5161 35.3715C11.2217 35.3926 10.9459 35.1993 10.862 34.9147C10.3205 33.077 9.29275 29.5886 9.25869 29.4715C9.23049 29.3724 9.17854 29.2803 9.10564 29.2042C6.71862 26.711 5.40425 23.4421 5.40425 20C5.40425 16.5579 6.71838 13.2893 9.10463 10.7965C9.1751 10.7228 9.22705 10.6333 9.2558 10.5355L10.8617 5.08554C10.9455 4.80085 11.2213 4.60804 11.5158 4.62874C11.5308 4.62976 11.5434 4.63015 11.5609 4.63015L11.7717 4.62944L11.7716 7.5542C11.7716 7.77624 11.887 7.98241 12.0763 8.09842C12.2658 8.21452 12.5017 8.22373 12.6995 8.12295C14.5783 7.16592 16.6048 6.68077 18.7233 6.68077C20.8417 6.68077 22.8683 7.16592 24.7469 8.1228C24.8381 8.16928 24.9374 8.19233 25.0366 8.19233C25.1524 8.19233 25.268 8.16077 25.3701 8.09827C25.5594 7.98225 25.6748 7.77616 25.6748 7.55405L25.6748 4.62929L25.8856 4.62999C25.9037 4.62983 25.9158 4.6296 25.9307 4.62851C26.2255 4.6078 26.5009 4.80069 26.5848 5.0853C27.1263 6.92303 28.154 10.4114 28.1881 10.5285C28.2163 10.6276 28.2683 10.7197 28.3412 10.7958C30.7279 13.289 32.0423 16.5577 32.0423 19.9999C32.0425 23.4421 30.7283 26.7107 28.3421 29.2035ZM34.5957 21.2765C34.5957 21.8632 34.1185 22.3403 33.5319 22.3403H33.1311C33.2552 21.5726 33.319 20.7905 33.319 20C33.319 19.2094 33.2552 18.4273 33.1311 17.6596H33.5319C34.1185 17.6596 34.5957 18.1368 34.5957 18.7234V21.2765Z" fill="#656C7D"/>
<path d="M24.1702 19.3617H19.3617V16.2553C19.3617 15.9027 19.076 15.617 18.7234 15.617C18.3708 15.617 18.0851 15.9027 18.0851 16.2553V20C18.0851 20.3525 18.3708 20.6382 18.7234 20.6382H24.1702C24.5228 20.6382 24.8085 20.3525 24.8085 20C24.8085 19.6474 24.5229 19.3617 24.1702 19.3617Z" fill="#656C7D"/>
<path d="M18.7234 10.5106C18.3708 10.5106 18.0851 10.7963 18.0851 11.1489V12C18.0851 12.3526 18.3708 12.6383 18.7234 12.6383C19.076 12.6383 19.3617 12.3526 19.3617 12V11.1489C19.3617 10.7963 19.076 10.5106 18.7234 10.5106Z" fill="#656C7D"/>
<path d="M15.2762 12.7526L14.8507 12.0156C14.6743 11.7103 14.2839 11.6058 13.9787 11.782C13.6734 11.9583 13.5689 12.3486 13.7451 12.6539L14.1707 13.3909C14.2889 13.5957 14.5034 13.7101 14.724 13.7101C14.8323 13.7101 14.9421 13.6825 15.0425 13.6245C15.3478 13.4483 15.4524 13.0579 15.2762 12.7526Z" fill="#656C7D"/>
<path d="M12.1144 15.4472L11.3774 15.0217C11.0719 14.8455 10.6816 14.95 10.5054 15.2553C10.3292 15.5606 10.4338 15.9509 10.739 16.1272L11.476 16.5528C11.5767 16.6108 11.6863 16.6384 11.7946 16.6384C12.0152 16.6384 12.2297 16.524 12.3479 16.3192C12.5242 16.0139 12.4196 15.6235 12.1144 15.4472Z" fill="#656C7D"/>
<path d="M10.7234 19.3617H9.87235C9.51977 19.3617 9.23407 19.6474 9.23407 20C9.23407 20.3525 9.51977 20.6382 9.87235 20.6382H10.7234C11.076 20.6382 11.3617 20.3525 11.3617 20C11.3617 19.6474 11.076 19.3617 10.7234 19.3617Z" fill="#656C7D"/>
<path d="M12.3481 23.6809C12.1717 23.3755 11.7814 23.2712 11.4761 23.4473L10.7391 23.8728C10.4338 24.0491 10.3292 24.4395 10.5055 24.7448C10.6238 24.9495 10.8382 25.064 11.0589 25.064C11.1671 25.064 11.2769 25.0364 11.3774 24.9784L12.1144 24.5528C12.4197 24.3765 12.5243 23.9861 12.3481 23.6809Z" fill="#656C7D"/>
<path d="M15.0425 26.3754C14.7371 26.1992 14.3467 26.3037 14.1706 26.609L13.745 27.346C13.5688 27.6512 13.6734 28.0416 13.9786 28.218C14.0793 28.276 14.1889 28.3036 14.2971 28.3036C14.5178 28.3036 14.7323 28.1892 14.8505 27.9844L15.276 27.2474C15.4524 26.9421 15.3478 26.5517 15.0425 26.3754Z" fill="#656C7D"/>
<path d="M18.7234 27.3617C18.3708 27.3617 18.0851 27.6474 18.0851 28V28.8511C18.0851 29.2036 18.3708 29.4893 18.7234 29.4893C19.076 29.4893 19.3617 29.2036 19.3617 28.8511V28C19.3617 27.6474 19.076 27.3617 18.7234 27.3617Z" fill="#656C7D"/>
<path d="M23.7017 27.346L23.2761 26.6089C23.0998 26.3036 22.7093 26.1992 22.4042 26.3753C22.0989 26.5516 21.9943 26.942 22.1706 27.2473L22.5961 27.9843C22.7144 28.1891 22.9289 28.3035 23.1495 28.3035C23.2578 28.3035 23.3676 28.2759 23.4681 28.2179C23.7734 28.0417 23.8779 27.6513 23.7017 27.346Z" fill="#656C7D"/>
<path d="M26.7077 23.8727L25.9707 23.4471C25.6651 23.2709 25.2749 23.3754 25.0987 23.6807C24.9225 23.9861 25.0271 24.3764 25.3323 24.5526L26.0694 24.9782C26.17 25.0362 26.2797 25.0638 26.3879 25.0638C26.6086 25.0638 26.8231 24.9493 26.9413 24.7446C27.1175 24.4393 27.0129 24.0489 26.7077 23.8727Z" fill="#656C7D"/>
<path d="M27.5745 19.3617H26.7234C26.3708 19.3617 26.0851 19.6474 26.0851 20C26.0851 20.3525 26.3708 20.6382 26.7234 20.6382H27.5745C27.927 20.6382 28.2127 20.3525 28.2127 20C28.2127 19.6474 27.927 19.3617 27.5745 19.3617Z" fill="#656C7D"/>
<path d="M26.9413 15.2553C26.765 14.9499 26.3746 14.8456 26.0694 15.0217L25.3323 15.4472C25.027 15.6235 24.9225 16.0139 25.0988 16.3192C25.217 16.5239 25.4315 16.6384 25.6521 16.6384C25.7604 16.6384 25.8702 16.6108 25.9706 16.5528L26.7077 16.1272C27.013 15.951 27.1176 15.5606 26.9413 15.2553Z" fill="#656C7D"/>
<path d="M23.4681 11.782C23.1626 11.6058 22.7723 11.7103 22.5962 12.0156L22.1706 12.7527C21.9944 13.058 22.099 13.4483 22.4042 13.6246C22.5049 13.6827 22.6145 13.7102 22.7227 13.7102C22.9434 13.7102 23.1579 13.5958 23.2761 13.391L23.7016 12.654C23.878 12.3487 23.7734 11.9583 23.4681 11.782Z" fill="#656C7D"/>
<path d="M18.7234 7.95746C12.0832 7.95746 6.68085 13.3597 6.68085 20C6.68085 22.716 7.61538 25.3813 9.31248 27.5053C9.53256 27.7807 9.93428 27.8256 10.2096 27.6055C10.485 27.3855 10.5299 26.9837 10.3098 26.7084C8.77084 24.7824 7.95741 22.4627 7.95741 20C7.95741 14.0637 12.787 9.2341 18.7233 9.2341C24.6596 9.2341 29.4893 14.0637 29.4893 20C29.4893 25.9363 24.6597 30.7659 18.7234 30.7659C16.2608 30.7659 13.9411 29.9525 12.0151 28.4135C11.7397 28.1934 11.338 28.2383 11.1179 28.5137C10.8979 28.7892 10.9427 29.1908 11.2182 29.4109C13.3421 31.108 16.0075 32.0425 18.7233 32.0425C25.3635 32.0425 30.7659 26.6402 30.7659 19.9999C30.7659 13.3596 25.3636 7.95746 18.7234 7.95746Z" fill="#656C7D"/>
</svg>
