<svg width="51" height="50" viewBox="0 0 51 50" fill="none" xmlns="http://www.w3.org/2000/svg">
<path d="M44.25 27.0833H37.9167C36.8121 27.0833 35.9167 27.9788 35.9167 29.0833V37.5833C35.9167 38.6879 36.8121 39.5833 37.9167 39.5833H42.25C43.3546 39.5833 44.25 38.6879 44.25 37.5833V27.0833C44.25 16.728 35.8553 8.33333 25.5 8.33333C15.1447 8.33333 6.75 16.728 6.75 27.0833V37.5833C6.75 38.6879 7.64543 39.5833 8.75 39.5833H13.0833C14.1879 39.5833 15.0833 38.6879 15.0833 37.5833V29.0833C15.0833 27.9788 14.1879 27.0833 13.0833 27.0833H6.75" stroke="#282182"/>
</svg>
