<svg width="51" height="50" viewBox="0 0 51 50" fill="none" xmlns="http://www.w3.org/2000/svg">
<path fill-rule="evenodd" clip-rule="evenodd" d="M13 4.16667V26.4167C13 31.3872 17.0294 35.4167 22 35.4167H29C33.9706 35.4167 38 31.3872 38 26.4167V4.16667H13Z" stroke="#282182" stroke-linecap="round"/>
<path d="M15.0833 43.75H35.9166" stroke="#282182" stroke-linecap="round"/>
<path d="M25.5 35.4167V43.75" stroke="#282182"/>
<path fill-rule="evenodd" clip-rule="evenodd" d="M13 10.4167H10.9167C7.46489 10.4167 4.66667 13.2149 4.66667 16.6667V16.6667C4.66667 20.1185 7.46489 22.9167 10.9167 22.9167H13L13 10.4167Z" stroke="#282182" stroke-linecap="round"/>
<path fill-rule="evenodd" clip-rule="evenodd" d="M38 22.9167H40.0833C43.5351 22.9167 46.3333 20.1185 46.3333 16.6667V16.6667C46.3333 13.2149 43.5351 10.4167 40.0833 10.4167H38V22.9167Z" stroke="#282182" stroke-linecap="round"/>
</svg>
