<svg width="141" height="64" viewBox="0 0 141 64" fill="none" xmlns="http://www.w3.org/2000/svg">
<path d="M3.104 37C2.67733 37 2.368 36.904 2.176 36.712C1.984 36.52 1.888 36.232 1.888 35.848V22.504C1.888 22.184 1.94133 21.96 2.048 21.832C2.15467 21.704 2.37867 21.64 2.72 21.64H4.544C4.77867 21.64 4.94933 21.6933 5.056 21.8C5.16267 21.8853 5.22667 22.0453 5.248 22.28L5.344 23.432C6.60267 21.9173 8.256 21.16 10.304 21.16C11.2427 21.16 11.9573 21.32 12.448 21.64C12.576 21.7253 12.6507 21.8213 12.672 21.928C12.7147 22.0133 12.7147 22.12 12.672 22.248L12.096 24.168C12.032 24.3813 11.9147 24.488 11.744 24.488L11.488 24.424C10.976 24.1893 10.3893 24.072 9.728 24.072C8.64 24.072 7.744 24.3813 7.04 25C6.336 25.5973 5.984 26.4187 5.984 27.464V35.848C5.984 36.232 5.888 36.52 5.696 36.712C5.52533 36.904 5.216 37 4.768 37H3.104ZM23.4885 37.48C21.8245 37.48 20.3205 37.2027 18.9765 36.648C17.6325 36.072 16.5552 35.1973 15.7445 34.024C14.9552 32.8293 14.5605 31.3467 14.5605 29.576C14.5605 26.824 15.2965 24.7333 16.7685 23.304C18.2405 21.8747 20.3312 21.16 23.0405 21.16C25.7285 21.16 27.7552 21.8533 29.1205 23.24C30.5072 24.6267 31.2005 26.632 31.2005 29.256C31.2005 30.0027 30.8592 30.376 30.1765 30.376H18.4325C18.4325 31.784 18.9232 32.872 19.9045 33.64C20.8858 34.3867 22.2512 34.76 24.0005 34.76C25.6858 34.76 27.2005 34.376 28.5445 33.608C28.6938 33.5227 28.8112 33.48 28.8965 33.48C29.0458 33.48 29.1632 33.576 29.2485 33.768L30.0165 35.144C30.0805 35.272 30.1125 35.3893 30.1125 35.496C30.1125 35.6453 30.0165 35.784 29.8245 35.912C28.9498 36.4453 28.0005 36.84 26.9765 37.096C25.9738 37.352 24.8112 37.48 23.4885 37.48ZM27.4885 28.008C27.4885 26.6853 27.1152 25.6507 26.3685 24.904C25.6432 24.1573 24.5445 23.784 23.0725 23.784C21.5792 23.784 20.4272 24.168 19.6165 24.936C18.8272 25.704 18.4325 26.728 18.4325 28.008H27.4885Z" fill="#FB9130"/>
<path d="M35.5095 37C35.0828 37 34.7735 36.904 34.5815 36.712C34.4108 36.52 34.3255 36.232 34.3255 35.848V16.424C34.3255 16.0187 34.4108 15.72 34.5815 15.528C34.7735 15.336 35.0935 15.24 35.5415 15.24H37.2695C37.6108 15.24 37.8668 15.2827 38.0375 15.368C38.2295 15.4533 38.3788 15.624 38.4855 15.88L44.9495 30.76L51.4135 15.88C51.5202 15.624 51.6588 15.4533 51.8295 15.368C52.0215 15.2827 52.2882 15.24 52.6295 15.24H54.3575C54.8055 15.24 55.1148 15.336 55.2855 15.528C55.4775 15.72 55.5735 16.0187 55.5735 16.424V35.848C55.5735 36.232 55.4775 36.52 55.2855 36.712C55.1148 36.904 54.8162 37 54.3895 37H52.9815C52.5548 37 52.2455 36.904 52.0535 36.712C51.8615 36.52 51.7655 36.232 51.7655 35.848V22.056L46.2935 34.248C46.1228 34.5893 45.9522 34.8347 45.7815 34.984C45.6108 35.1333 45.3335 35.208 44.9495 35.208C44.5655 35.208 44.2775 35.1333 44.0855 34.984C43.9148 34.8347 43.7548 34.5893 43.6055 34.248L38.1335 22.056V35.848C38.1335 36.232 38.0375 36.52 37.8455 36.712C37.6748 36.904 37.3655 37 36.9175 37H35.5095ZM65.5648 37.48C63.4741 37.48 61.8101 36.8507 60.5728 35.592C59.3354 34.312 58.7168 32.52 58.7168 30.216C58.7168 28.424 59.1114 26.8453 59.9008 25.48C60.6901 24.0933 61.8101 23.0267 63.2608 22.28C64.7328 21.5333 66.4394 21.16 68.3808 21.16C71.0901 21.16 73.3834 21.8 75.2608 23.08V36.136C75.2608 36.456 75.1861 36.68 75.0368 36.808C74.9088 36.936 74.6741 37 74.3328 37H72.5728C72.3381 37 72.1568 36.9573 72.0288 36.872C71.9221 36.7653 71.8474 36.6053 71.8048 36.392L71.5488 35.144C70.8874 35.9547 70.0661 36.552 69.0848 36.936C68.1248 37.2987 66.9514 37.48 65.5648 37.48ZM67.1008 34.568C68.2314 34.568 69.2234 34.2373 70.0768 33.576C70.9514 32.9147 71.3888 32.04 71.3888 30.952V24.712C70.9408 24.4773 70.4821 24.3173 70.0128 24.232C69.5648 24.1253 69.0101 24.072 68.3488 24.072C66.6634 24.072 65.3088 24.6053 64.2848 25.672C63.2608 26.7387 62.7488 28.2107 62.7488 30.088C62.7488 31.624 63.1008 32.7547 63.8048 33.48C64.5301 34.2053 65.6288 34.568 67.1008 34.568ZM80.2603 37C79.8336 37 79.5243 36.904 79.3323 36.712C79.1403 36.52 79.0443 36.232 79.0443 35.848V22.504C79.0443 22.184 79.0976 21.96 79.2043 21.832C79.3109 21.704 79.5349 21.64 79.8763 21.64H81.7003C81.9349 21.64 82.1056 21.6933 82.2123 21.8C82.3189 21.8853 82.3829 22.0453 82.4043 22.28L82.5003 23.432C83.7589 21.9173 85.4123 21.16 87.4603 21.16C88.3989 21.16 89.1136 21.32 89.6043 21.64C89.7323 21.7253 89.8069 21.8213 89.8283 21.928C89.8709 22.0133 89.8709 22.12 89.8283 22.248L89.2523 24.168C89.1883 24.3813 89.0709 24.488 88.9003 24.488L88.6443 24.424C88.1323 24.1893 87.5456 24.072 86.8843 24.072C85.7963 24.072 84.9003 24.3813 84.1963 25C83.4923 25.5973 83.1403 26.4187 83.1403 27.464V35.848C83.1403 36.232 83.0443 36.52 82.8523 36.712C82.6816 36.904 82.3723 37 81.9243 37H80.2603ZM93.5408 37C93.1141 37 92.8048 36.904 92.6128 36.712C92.4421 36.52 92.3568 36.232 92.3568 35.848V16.424C92.3568 16.0187 92.4421 15.72 92.6128 15.528C92.8048 15.336 93.1141 15.24 93.5408 15.24H95.2368C95.6634 15.24 95.9728 15.336 96.1648 15.528C96.3568 15.72 96.4528 16.0187 96.4528 16.424V35.848C96.4528 36.232 96.3568 36.52 96.1648 36.712C95.9941 36.904 95.6848 37 95.2368 37H93.5408ZM103.909 37C103.674 37 103.503 36.9787 103.397 36.936C103.29 36.8933 103.173 36.7973 103.045 36.648L97.4128 30.28C97.2208 30.0667 97.0821 29.8747 96.9968 29.704C96.9114 29.512 96.8688 29.2773 96.8688 29C96.8688 28.7227 96.9114 28.4987 96.9968 28.328C97.0821 28.136 97.2208 27.9333 97.4128 27.72L102.853 22.024C102.981 21.8747 103.098 21.7787 103.205 21.736C103.333 21.672 103.535 21.64 103.813 21.64H106.789C106.938 21.64 107.045 21.6827 107.109 21.768C107.194 21.8533 107.237 21.96 107.237 22.088C107.237 22.2587 107.173 22.408 107.045 22.536L100.677 29L107.269 36.104C107.397 36.232 107.461 36.3707 107.461 36.52C107.461 36.648 107.418 36.7653 107.333 36.872C107.247 36.9573 107.13 37 106.981 37H103.909ZM117.145 37.48C115.481 37.48 113.977 37.2027 112.633 36.648C111.289 36.072 110.211 35.1973 109.401 34.024C108.611 32.8293 108.217 31.3467 108.217 29.576C108.217 26.824 108.953 24.7333 110.425 23.304C111.897 21.8747 113.987 21.16 116.697 21.16C119.385 21.16 121.411 21.8533 122.777 23.24C124.163 24.6267 124.857 26.632 124.857 29.256C124.857 30.0027 124.515 30.376 123.833 30.376H112.089C112.089 31.784 112.579 32.872 113.561 33.64C114.542 34.3867 115.907 34.76 117.657 34.76C119.342 34.76 120.857 34.376 122.201 33.608C122.35 33.5227 122.467 33.48 122.553 33.48C122.702 33.48 122.819 33.576 122.905 33.768L123.673 35.144C123.737 35.272 123.769 35.3893 123.769 35.496C123.769 35.6453 123.673 35.784 123.481 35.912C122.606 36.4453 121.657 36.84 120.633 37.096C119.63 37.352 118.467 37.48 117.145 37.48ZM121.145 28.008C121.145 26.6853 120.771 25.6507 120.025 24.904C119.299 24.1573 118.201 23.784 116.729 23.784C115.235 23.784 114.083 24.168 113.273 24.936C112.483 25.704 112.089 26.728 112.089 28.008H121.145ZM135.054 37.48C133.24 37.48 131.875 36.9787 130.958 35.976C130.04 34.9733 129.582 33.5867 129.582 31.816V24.648H127.758C127.331 24.648 127.043 24.5733 126.894 24.424C126.766 24.2747 126.702 23.9973 126.702 23.592V22.728C126.702 22.3227 126.766 22.0453 126.894 21.896C127.043 21.7253 127.331 21.64 127.758 21.64H129.582V19.88C129.582 19.432 129.656 19.016 129.806 18.632C129.976 18.2267 130.232 17.7253 130.574 17.128C130.702 16.872 130.819 16.712 130.926 16.648C131.054 16.5627 131.267 16.52 131.566 16.52H132.622C133.006 16.52 133.272 16.616 133.422 16.808C133.592 16.9787 133.678 17.2453 133.678 17.608V21.64H137.454C137.88 21.64 138.158 21.7253 138.286 21.896C138.435 22.0453 138.51 22.3227 138.51 22.728V23.592C138.51 23.9973 138.435 24.2747 138.286 24.424C138.158 24.5733 137.88 24.648 137.454 24.648H133.678V31.688C133.678 32.6693 133.848 33.384 134.19 33.832C134.531 34.2587 135.118 34.472 135.95 34.472C136.44 34.472 136.856 34.4187 137.198 34.312C137.539 34.184 137.912 33.9813 138.318 33.704C138.424 33.6187 138.542 33.576 138.67 33.576C138.798 33.576 138.926 33.672 139.054 33.864L139.982 35.4C140.067 35.5067 140.11 35.624 140.11 35.752C140.11 35.9013 140.003 36.0507 139.79 36.2C138.467 37.0533 136.888 37.48 135.054 37.48Z" fill="#272323"/>
<path d="M12.4853 61.072C11.6533 61.072 10.8973 60.888 10.2173 60.52C9.54531 60.144 9.01731 59.632 8.63331 58.984C8.25731 58.336 8.06931 57.608 8.06931 56.8C8.06931 55.992 8.25731 55.264 8.63331 54.616C9.01731 53.968 9.54531 53.46 10.2173 53.092C10.8973 52.716 11.6533 52.528 12.4853 52.528C13.3173 52.528 14.0653 52.712 14.7293 53.08C15.4013 53.448 15.9293 53.96 16.3133 54.616C16.6973 55.264 16.8893 55.992 16.8893 56.8C16.8893 57.608 16.6973 58.34 16.3133 58.996C15.9293 59.644 15.4013 60.152 14.7293 60.52C14.0653 60.888 13.3173 61.072 12.4853 61.072ZM12.4853 60.28C13.1493 60.28 13.7493 60.132 14.2853 59.836C14.8213 59.532 15.2413 59.116 15.5453 58.588C15.8493 58.052 16.0013 57.456 16.0013 56.8C16.0013 56.144 15.8493 55.552 15.5453 55.024C15.2413 54.488 14.8213 54.072 14.2853 53.776C13.7493 53.472 13.1493 53.32 12.4853 53.32C11.8213 53.32 11.2173 53.472 10.6733 53.776C10.1373 54.072 9.71331 54.488 9.40131 55.024C9.09731 55.552 8.94531 56.144 8.94531 56.8C8.94531 57.456 9.09731 58.052 9.40131 58.588C9.71331 59.116 10.1373 59.532 10.6733 59.836C11.2173 60.132 11.8213 60.28 12.4853 60.28ZM21.9157 54.64C22.7077 54.64 23.3357 54.872 23.7997 55.336C24.2717 55.792 24.5077 56.46 24.5077 57.34V61H23.6557V57.424C23.6557 56.768 23.4917 56.268 23.1637 55.924C22.8357 55.58 22.3677 55.408 21.7597 55.408C21.0797 55.408 20.5397 55.612 20.1397 56.02C19.7477 56.42 19.5517 56.976 19.5517 57.688V61H18.6997V54.688H19.5157V55.852C19.7477 55.468 20.0677 55.172 20.4757 54.964C20.8917 54.748 21.3717 54.64 21.9157 54.64ZM26.8208 52.096H27.6728V61H26.8208V52.096ZM30.0435 54.688H30.8955V61H30.0435V54.688ZM30.4755 53.308C30.2995 53.308 30.1515 53.248 30.0315 53.128C29.9115 53.008 29.8515 52.864 29.8515 52.696C29.8515 52.536 29.9115 52.396 30.0315 52.276C30.1515 52.156 30.2995 52.096 30.4755 52.096C30.6515 52.096 30.7995 52.156 30.9195 52.276C31.0395 52.388 31.0995 52.524 31.0995 52.684C31.0995 52.86 31.0395 53.008 30.9195 53.128C30.7995 53.248 30.6515 53.308 30.4755 53.308ZM36.4821 54.64C37.2741 54.64 37.9021 54.872 38.3661 55.336C38.8381 55.792 39.0741 56.46 39.0741 57.34V61H38.2221V57.424C38.2221 56.768 38.0581 56.268 37.7301 55.924C37.4021 55.58 36.9341 55.408 36.3261 55.408C35.6461 55.408 35.1061 55.612 34.7061 56.02C34.3141 56.42 34.1181 56.976 34.1181 57.688V61H33.2661V54.688H34.0821V55.852C34.3141 55.468 34.6341 55.172 35.0421 54.964C35.4581 54.748 35.9381 54.64 36.4821 54.64ZM46.9067 58.108H41.6267C41.6747 58.764 41.9267 59.296 42.3827 59.704C42.8387 60.104 43.4147 60.304 44.1107 60.304C44.5027 60.304 44.8627 60.236 45.1907 60.1C45.5187 59.956 45.8027 59.748 46.0427 59.476L46.5227 60.028C46.2427 60.364 45.8907 60.62 45.4667 60.796C45.0507 60.972 44.5907 61.06 44.0867 61.06C43.4387 61.06 42.8627 60.924 42.3587 60.652C41.8627 60.372 41.4747 59.988 41.1947 59.5C40.9147 59.012 40.7747 58.46 40.7747 57.844C40.7747 57.228 40.9067 56.676 41.1707 56.188C41.4427 55.7 41.8107 55.32 42.2747 55.048C42.7467 54.776 43.2747 54.64 43.8587 54.64C44.4427 54.64 44.9667 54.776 45.4307 55.048C45.8947 55.32 46.2587 55.7 46.5227 56.188C46.7867 56.668 46.9187 57.22 46.9187 57.844L46.9067 58.108ZM43.8587 55.372C43.2507 55.372 42.7387 55.568 42.3227 55.96C41.9147 56.344 41.6827 56.848 41.6267 57.472H46.1027C46.0467 56.848 45.8107 56.344 45.3947 55.96C44.9867 55.568 44.4747 55.372 43.8587 55.372ZM56.2815 55.444H52.6695V61H51.8175V54.688H56.2815V55.444ZM57.5128 54.688H58.3648V59.704L62.5768 54.688H63.3328V61H62.4808V55.984L58.2808 61H57.5128V54.688ZM71.4385 54.688V61H70.5865V55.444H66.6265V61H65.7745V54.688H71.4385ZM79.3804 58.108H74.1004C74.1484 58.764 74.4004 59.296 74.8564 59.704C75.3124 60.104 75.8884 60.304 76.5844 60.304C76.9764 60.304 77.3364 60.236 77.6644 60.1C77.9924 59.956 78.2764 59.748 78.5164 59.476L78.9964 60.028C78.7164 60.364 78.3644 60.62 77.9404 60.796C77.5244 60.972 77.0644 61.06 76.5604 61.06C75.9124 61.06 75.3364 60.924 74.8324 60.652C74.3364 60.372 73.9484 59.988 73.6684 59.5C73.3884 59.012 73.2484 58.46 73.2484 57.844C73.2484 57.228 73.3804 56.676 73.6444 56.188C73.9164 55.7 74.2844 55.32 74.7484 55.048C75.2204 54.776 75.7484 54.64 76.3324 54.64C76.9164 54.64 77.4404 54.776 77.9044 55.048C78.3684 55.32 78.7324 55.7 78.9964 56.188C79.2604 56.668 79.3924 57.22 79.3924 57.844L79.3804 58.108ZM76.3324 55.372C75.7244 55.372 75.2124 55.568 74.7964 55.96C74.3884 56.344 74.1564 56.848 74.1004 57.472H78.5764C78.5204 56.848 78.2844 56.344 77.8684 55.96C77.4604 55.568 76.9484 55.372 76.3324 55.372ZM84.5304 54.64C85.1224 54.64 85.6584 54.776 86.1384 55.048C86.6184 55.312 86.9944 55.688 87.2664 56.176C87.5384 56.664 87.6744 57.22 87.6744 57.844C87.6744 58.476 87.5384 59.036 87.2664 59.524C86.9944 60.012 86.6184 60.392 86.1384 60.664C85.6664 60.928 85.1304 61.06 84.5304 61.06C84.0184 61.06 83.5544 60.956 83.1384 60.748C82.7304 60.532 82.3944 60.22 82.1304 59.812V63.328H81.2784V54.688H82.0944V55.936C82.3504 55.52 82.6864 55.2 83.1024 54.976C83.5264 54.752 84.0024 54.64 84.5304 54.64ZM84.4704 60.304C84.9104 60.304 85.3104 60.204 85.6704 60.004C86.0304 59.796 86.3104 59.504 86.5104 59.128C86.7184 58.752 86.8224 58.324 86.8224 57.844C86.8224 57.364 86.7184 56.94 86.5104 56.572C86.3104 56.196 86.0304 55.904 85.6704 55.696C85.3104 55.488 84.9104 55.384 84.4704 55.384C84.0224 55.384 83.6184 55.488 83.2584 55.696C82.9064 55.904 82.6264 56.196 82.4184 56.572C82.2184 56.94 82.1184 57.364 82.1184 57.844C82.1184 58.324 82.2184 58.752 82.4184 59.128C82.6264 59.504 82.9064 59.796 83.2584 60.004C83.6184 60.204 84.0224 60.304 84.4704 60.304ZM96.561 54.688V61H95.781V56.008L93.225 60.232H92.841L90.285 55.996V61H89.505V54.688H90.369L93.045 59.236L95.769 54.688H96.561ZM101.157 54.64C101.981 54.64 102.613 54.848 103.053 55.264C103.493 55.672 103.713 56.28 103.713 57.088V61H102.897V60.016C102.705 60.344 102.421 60.6 102.045 60.784C101.677 60.968 101.237 61.06 100.725 61.06C100.021 61.06 99.4614 60.892 99.0454 60.556C98.6294 60.22 98.4214 59.776 98.4214 59.224C98.4214 58.688 98.6134 58.256 98.9974 57.928C99.3894 57.6 100.009 57.436 100.857 57.436H102.861V57.052C102.861 56.508 102.709 56.096 102.405 55.816C102.101 55.528 101.657 55.384 101.073 55.384C100.673 55.384 100.289 55.452 99.9214 55.588C99.5534 55.716 99.2374 55.896 98.9734 56.128L98.5894 55.492C98.9094 55.22 99.2934 55.012 99.7414 54.868C100.189 54.716 100.661 54.64 101.157 54.64ZM100.857 60.388C101.337 60.388 101.749 60.28 102.093 60.064C102.437 59.84 102.693 59.52 102.861 59.104V58.072H100.881C99.8014 58.072 99.2614 58.448 99.2614 59.2C99.2614 59.568 99.4014 59.86 99.6814 60.076C99.9614 60.284 100.353 60.388 100.857 60.388ZM109.234 54.64C109.826 54.64 110.362 54.776 110.842 55.048C111.322 55.312 111.698 55.688 111.97 56.176C112.242 56.664 112.378 57.22 112.378 57.844C112.378 58.476 112.242 59.036 111.97 59.524C111.698 60.012 111.322 60.392 110.842 60.664C110.37 60.928 109.834 61.06 109.234 61.06C108.722 61.06 108.258 60.956 107.842 60.748C107.434 60.532 107.098 60.22 106.834 59.812V63.328H105.982V54.688H106.798V55.936C107.054 55.52 107.39 55.2 107.806 54.976C108.23 54.752 108.706 54.64 109.234 54.64ZM109.174 60.304C109.614 60.304 110.014 60.204 110.374 60.004C110.734 59.796 111.014 59.504 111.214 59.128C111.422 58.752 111.526 58.324 111.526 57.844C111.526 57.364 111.422 56.94 111.214 56.572C111.014 56.196 110.734 55.904 110.374 55.696C110.014 55.488 109.614 55.384 109.174 55.384C108.726 55.384 108.322 55.488 107.962 55.696C107.61 55.904 107.33 56.196 107.122 56.572C106.922 56.94 106.822 57.364 106.822 57.844C106.822 58.324 106.922 58.752 107.122 59.128C107.33 59.504 107.61 59.796 107.962 60.004C108.322 60.204 108.726 60.304 109.174 60.304ZM116.5 58.192H115.06V61H114.208V54.688H115.06V57.46H116.512L118.732 54.688H119.656L117.172 57.748L119.836 61H118.828L116.5 58.192ZM126.478 58.108H121.198C121.246 58.764 121.498 59.296 121.954 59.704C122.41 60.104 122.986 60.304 123.682 60.304C124.074 60.304 124.434 60.236 124.762 60.1C125.09 59.956 125.374 59.748 125.614 59.476L126.094 60.028C125.814 60.364 125.462 60.62 125.038 60.796C124.622 60.972 124.162 61.06 123.658 61.06C123.01 61.06 122.434 60.924 121.93 60.652C121.434 60.372 121.046 59.988 120.766 59.5C120.486 59.012 120.346 58.46 120.346 57.844C120.346 57.228 120.478 56.676 120.742 56.188C121.014 55.7 121.382 55.32 121.846 55.048C122.318 54.776 122.846 54.64 123.43 54.64C124.014 54.64 124.538 54.776 125.002 55.048C125.466 55.32 125.83 55.7 126.094 56.188C126.358 56.668 126.49 57.22 126.49 57.844L126.478 58.108ZM123.43 55.372C122.822 55.372 122.31 55.568 121.894 55.96C121.486 56.344 121.254 56.848 121.198 57.472H125.674C125.618 56.848 125.382 56.344 124.966 55.96C124.558 55.568 124.046 55.372 123.43 55.372ZM132.535 55.444H130.147V61H129.295V55.444H126.907V54.688H132.535V55.444Z" fill="#B1B1B1"/>
</svg>
